<?xml version="1.0" encoding="UTF-8" standalone="no"?>
<!-- Created with Inkscape (http://www.inkscape.org/) -->

<svg
   xmlns:dc="http://purl.org/dc/elements/1.1/"
   xmlns:cc="http://creativecommons.org/ns#"
   xmlns:rdf="http://www.w3.org/1999/02/22-rdf-syntax-ns#"
   xmlns:svg="http://www.w3.org/2000/svg"
   xmlns="http://www.w3.org/2000/svg"
   xmlns:sodipodi="http://sodipodi.sourceforge.net/DTD/sodipodi-0.dtd"
   xmlns:inkscape="http://www.inkscape.org/namespaces/inkscape"
   width="39.590607mm"
   height="32.173336mm"
   viewBox="0 0 39.590607 32.173336"
   version="1.1"
   id="svg8"
   inkscape:version="0.92.3 (2405546, 2018-03-11)"
   sodipodi:docname="honda.svg">
  <defs
     id="defs2" />
  <sodipodi:namedview
     id="base"
     pagecolor="#ffffff"
     bordercolor="#666666"
     borderopacity="1.0"
     inkscape:pageopacity="0.0"
     inkscape:pageshadow="2"
     inkscape:zoom="1.979899"
     inkscape:cx="150.15283"
     inkscape:cy="80.959281"
     inkscape:document-units="mm"
     inkscape:current-layer="g19"
     showgrid="false"
     inkscape:window-width="3840"
     inkscape:window-height="2066"
     inkscape:window-x="-11"
     inkscape:window-y="-11"
     inkscape:window-maximized="1" />
  <metadata
     id="metadata5">
    <rdf:RDF>
      <cc:Work
         rdf:about="">
        <dc:format>image/svg+xml</dc:format>
        <dc:type
           rdf:resource="http://purl.org/dc/dcmitype/StillImage" />
        <dc:title></dc:title>
      </cc:Work>
    </rdf:RDF>
  </metadata>
  <g
     inkscape:label="Layer 1"
     inkscape:groupmode="layer"
     id="layer1"
     transform="translate(-872.29018,1.1854162)">
    <g
       id="g19"
       transform="matrix(0.26458333,0,0,0.26458333,855.6097,-1.2515623)">
      <title
         id="title10">Layer 1</title>
      <path
         d="m 172.17813,10.549999 c -3.39999,15.299999 -4.8,22.400002 -7.59999,33.400002 -2.70001,10.600002 -4.8,20.499996 -8.40001,25.299999 -3.59999,4.900002 -8.5,5.900002 -11.8,6.300003 -1.7,0.199997 -3,0.299995 -6.7,0.299995 -3.7,0 -5,-0.1 -6.7,-0.299995 -3.3,-0.400002 -8.19999,-1.400002 -11.8,-6.300003 -3.59999,-4.800003 -5.7,-14.699997 -8.29999,-25.299999 -2.80001,-11.100002 -4.2,-18.100002 -7.6,-33.400002 0,0 -3.400004,0.1 -4.900004,0.200001 -2.099998,0.1 -3.699997,0.299999 -5.400002,0.5 0,0 2,31.5 2.900002,44.900002 0.900002,14 2.599998,37.699997 4.099998,55.599998 0,0 2.900006,0.5 7.700006,0.7 5,0.3 7.29999,0.3 7.29999,0.3 2.10001,-7.9 4.60001,-18.800003 7.5,-23.5 2.4,-3.800003 6,-4.199997 8.10001,-4.5 3.2,-0.400002 6,-0.5 7.2,-0.5 v 0 0 c 1.3,0 4,0 7.19999,0.5 2.10001,0.300003 5.7,0.699997 8.10001,4.5 2.89999,4.699997 5.5,15.6 7.5,23.5 0,0 2.2,0 7.2,-0.3 4.8,-0.3 7.69999,-0.7 7.69999,-0.7 1.5,-17.900002 3.2,-41.5 4.10001,-55.599998 C 180.47813,42.849999 182.47813,11.25 182.47813,11.25 c -1.69999,-0.200001 -3.39999,-0.4 -5.39999,-0.5 -1.50001,-0.1 -4.90001,-0.200001 -4.90001,-0.200001"
         id="svg_6"
         inkscape:connector-curvature="0"
         style="fill:#000000" />
      <path
         d="M 211.87813,29.150002 C 209.87813,9.15 196.47812,4.950001 184.77812,2.95 c -5.89999,-1 -16.39999,-1.8 -23.09999,-2.099999 -5.90001,-0.400001 -19.70001,-0.6 -23.90001,-0.6 -4.2,0 -18,0.2 -23.89999,0.6 C 107.17812,1.15 96.678123,1.95 90.778122,2.95 79.078125,4.950001 65.678124,9.15 63.678124,29.150002 c -0.599998,5.5 -0.699997,12.599998 -0.599998,20.199997 0.199997,12.700005 1.300003,21.200005 1.900002,27.200005 0.400002,4.099998 2.099998,16.299995 4.299995,22.599998 3,8.699998 5.700005,11.199998 8.900002,13.799998 5.800003,4.69999 15.400002,6.19999 17.400002,6.6 10.800003,1.9 32.600003,2.30001 42.300003,2.30001 9.59999,0 31.5,-0.30001 42.3,-2.30001 2,-0.40001 11.59999,-1.8 17.4,-6.6 3.19999,-2.6 5.89999,-5.1 8.89999,-13.799998 2.20001,-6.300003 3.90001,-18.599998 4.3,-22.599998 0.60001,-5.900002 1.7,-14.5 1.90001,-27.200005 -0.1,-7.699997 -0.3,-14.799999 -0.8,-20.199997 M 204.47812,62.75 c -1.2,16 -2.60001,25.599998 -4.60001,32.5 -1.8,6.1 -4,10.1 -7.19999,13 -5.4,4.9 -12.80001,5.9 -17.2,6.6 -9.40001,1.4 -25.3,1.9 -37.7,1.9 -12.5,0 -28.30001,-0.5 -37.7,-1.9 -4.400003,-0.7 -11.800004,-1.7 -17.200006,-6.6 -3.199997,-2.9 -5.400002,-7 -7.199997,-13 -2,-6.900002 -3.5,-16.5 -4.599998,-32.5 -0.700005,-9.599998 -0.600006,-25.200001 0.5,-33.599998 C 73.078127,16.55 79.278124,10.25 92.578127,7.950001 98.778124,6.850001 107.17812,6.049999 115.07813,5.65 c 6.39999,-0.4 16.8,-0.6 22.69999,-0.6 5.80001,-0.099998 16.30001,0.200001 22.60001,0.6 7.89999,0.4 16.3,1.200001 22.5,2.300001 13.3,2.4 19.5,8.699999 21.09999,21.200001 1.10001,8.299999 1.20001,23.900002 0.5,33.599998"
         id="svg_7"
         inkscape:connector-curvature="0"
         style="fill:#000000" />
    </g>
  </g>
</svg>
