<svg height="496pt" viewBox="0 0 496 496" width="496pt" xmlns="http://www.w3.org/2000/svg"><path d="m458.96875 80.304688 28.054688-28.015626c5.792968-5.792968 8.976562-13.472656 8.976562-21.664062 0-16.882812-13.734375-30.625-30.632812-30.625-8.175782 0-15.863282 3.183594-21.65625 8.96875l-71.023438 71.03125h-332.6875c-22.054688 0-40 17.945312-40 40v296c0 17.648438 14.351562 32 32 32h104v32h-32v16h288v-16h-32v-32h104c17.648438 0 32-14.351562 32-32v-296c0-21.039062-16.382812-38.152344-37.03125-39.695312zm-3.945312-60.023438c2.769531-2.761719 6.441406-4.28125 10.34375-4.28125 8.074218 0 14.632812 6.558594 14.632812 14.625 0 3.847656-1.558594 7.613281-4.289062 10.34375l-171.710938 171.71875-20.6875-20.6875zm-7.023438 363.71875h-400v-256h276.6875l-58.34375 58.34375-15.414062 22.921875-12.34375 4.109375c-2.808594.9375-5.488282 2.199219-8.082032 3.632812-5.703125-8.527343-13.550781-15.214843-22.625-19.511718-1.335937-29.710938-25.847656-53.496094-55.878906-53.496094-30.007812 0-54.503906 23.742188-55.871094 53.414062-18.953125 8.984376-32.128906 28.257813-32.128906 50.585938 0 30.871094 25.121094 56 56 56 11.894531 0 22.921875-3.761719 32-10.113281 9.078125 6.351562 20.105469 10.113281 32 10.113281 10.800781 0 21.222656-3.121094 30.246094-8.929688l30.210937-5.039062c10.0625-1.671875 19.191407-6.375 26.414063-13.589844 5.3125-5.320312 9.375-11.890625 11.753906-19.007812l4.09375-12.296875 21.714844-14.480469 102.78125-102.65625h36.785156zm-242.03125-132.464844-5.480469 32.871094c-5.152343 2.347656-10.746093 3.59375-16.488281 3.59375-7.296875 0-14.054688-2.113281-19.953125-5.535156 6.960937-8.878906 11.273437-19.890625 11.824219-31.878906 14.632812-6.9375 25.777344-20 30.105468-35.882813 4.777344 3.152344 8.894532 7.296875 11.992188 12.289063-6.265625 6.910156-10.464844 15.304687-12 24.542968zm-107.960938-36.886718c4.320313 15.910156 15.472657 28.992187 30.121094 35.9375.550782 11.988281 4.863282 23 11.824219 31.878906-5.898437 3.421875-12.65625 5.535156-19.953125 5.535156-22.054688 0-40-17.945312-40-40 0-13.929688 7.175781-26.191406 18.007812-33.351562zm75.984376 18.703124c-1.984376-7.304687-5.390626-14.015624-9.945313-19.816406 5.898437-3.421875 12.65625-5.535156 19.953125-5.535156 2.367188 0 4.695312.289062 6.984375.695312-2.289063 10.257813-8.488281 19.03125-16.992187 24.65625zm-21.992188-9.105468c3.296875 4.425781 5.742188 9.488281 6.984375 15.050781-2.28125.398437-4.59375.703125-6.984375.703125s-4.703125-.304688-6.984375-.703125c1.242187-5.5625 3.6875-10.625 6.984375-15.050781zm32-32.246094c-11.894531 0-22.921875 3.761719-32 10.113281-9.078125-6.351562-20.105469-10.113281-32-10.113281-2.464844 0-4.863281.214844-7.246094.519531 3.519532-18.480469 19.75-32.519531 39.246094-32.519531 19.480469 0 35.703125 14.015625 39.238281 32.488281-2.382812-.320312-4.796875-.488281-7.238281-.488281zm-64 16c7.296875 0 14.054688 2.113281 19.953125 5.535156-4.554687 5.800782-7.960937 12.511719-9.945313 19.816406-8.503906-5.625-14.703124-14.390624-16.992187-24.648437 2.28125-.398437 4.59375-.703125 6.984375-.703125zm24.753906 47.480469c2.382813.304687 4.78125.519531 7.246094.519531s4.863281-.214844 7.246094-.519531c-1.148438 6.03125-3.703125 11.527343-7.246094 16.273437-3.535156-4.753906-6.097656-10.242187-7.246094-16.273437zm77-1.3125c1.125-6.753907 4.277344-12.871094 9.125-17.726563 3.5625-3.5625 7.96875-6.289062 12.761719-7.882812l10.199219-3.398438 17.007812 17.007813-3.398437 10.207031c-1.59375 4.785156-4.320313 9.191406-7.890625 12.769531-4.839844 4.839844-10.964844 7.992188-17.726563 9.121094l-24.097656 4.015625zm59.261719-24.464844-14.726563-14.71875 6.949219-10.425781 18.203125 18.203125zm-265.015625-109.703125c0-13.230469 10.769531-24 24-24h316.6875l-16 16h-292.6875c-8.824219 0-16 7.175781-16 16v256h-16zm328 360h-192v-32h192zm136-64c0 8.824219-7.175781 16-16 16h-432c-8.824219 0-16-7.175781-16-16v-16h464zm-16-32v-256c0-8.824219-7.175781-16-16-16h-20.769531l16.015625-16h12.753906c13.230469 0 24 10.769531 24 24v264zm0 0"/><path d="m64 352h16v16h-16zm0 0"/><path d="m96 352h176v16h-176zm0 0"/><path d="m64 320h16v16h-16zm0 0"/><path d="m96 320h176v16h-176zm0 0"/><path d="m392 352c-4.183594 0-8.257812-1.152344-12.097656-3.414062l-8.125 13.78125c6.246094 3.6875 13.238281 5.632812 20.222656 5.632812 22.054688 0 40-17.945312 40-40 0-6.984375-1.953125-13.984375-5.640625-20.230469l-13.785156 8.140625c2.273437 3.832032 3.425781 7.90625 3.425781 12.089844 0 13.230469-10.769531 24-24 24zm0 0"/><path d="m392 304c4.183594 0 8.257812 1.152344 12.097656 3.414062l8.125-13.78125c-6.246094-3.6875-13.238281-5.632812-20.222656-5.632812-22.054688 0-40 17.945312-40 40 0 13.230469-10.769531 24-24 24-4.183594 0-8.257812-1.152344-12.097656-3.414062l-8.125 13.78125c6.246094 3.6875 13.238281 5.632812 20.222656 5.632812 22.054688 0 40-17.945312 40-40 0-13.230469 10.769531-24 24-24zm0 0"/><path d="m328 304c4.183594 0 8.257812 1.152344 12.097656 3.414062l8.125-13.78125c-6.246094-3.6875-13.238281-5.632812-20.222656-5.632812-22.054688 0-40 17.945312-40 40 0 6.984375 1.953125 13.984375 5.640625 20.230469l13.785156-8.140625c-2.273437-3.832032-3.425781-7.90625-3.425781-12.089844 0-13.230469 10.769531-24 24-24zm0 0"/></svg>