<svg height="480pt" viewBox="0 0 480 480" width="480pt" xmlns="http://www.w3.org/2000/svg"><path d="m280 320h-80c-13.253906 0-24-10.746094-24-24s10.746094-24 24-24h64v-16h-64c-22.089844 0-40 17.910156-40 40s17.910156 40 40 40h80c20.152344.007812 37.160156-14.972656 39.699219-34.964844 2.535156-19.988281-10.195313-38.746094-29.707031-43.769531l-4 15.488281c11.71875 3.003906 19.371093 14.261719 17.847656 26.265625-1.519532 12.003907-11.742188 20.996094-23.839844 20.980469zm0 0"/><path d="m232 288h16v16h-16zm0 0"/><path d="m264 288h16v16h-16zm0 0"/><path d="m200 288h16v16h-16zm0 0"/><path d="m96 192h189.753906l-13.515625 54.054688c-.871093 3.488281.691407 7.132812 3.820313 8.902343 3.128906 1.773438 7.054687 1.242188 9.597656-1.300781l61.65625-61.65625h36.6875c53.019531 0 96-42.980469 96-96s-42.980469-96-96-96h-288c-53.019531 0-96 42.980469-96 96s42.980469 96 96 96zm0-176h288c44.183594 0 80 35.816406 80 80s-35.816406 80-80 80h-40c-2.121094 0-4.15625.84375-5.65625 2.34375l-43.574219 43.578125 8.992188-36c.589843-2.390625.046875-4.914063-1.464844-6.851563-1.515625-1.9375-3.839844-3.070312-6.296875-3.070312h-200c-44.183594 0-80-35.816406-80-80s35.816406-80 80-80zm0 0"/><path d="m240 160c35.347656 0 64-28.652344 64-64s-28.652344-64-64-64-64 28.652344-64 64c.039062 35.328125 28.671875 63.960938 64 64zm0-112c26.507812 0 48 21.492188 48 48s-21.492188 48-48 48-48-21.492188-48-48c.027344-26.5 21.5-47.972656 48-48zm0 0"/><path d="m96 160c35.347656 0 64-28.652344 64-64s-28.652344-64-64-64-64 28.652344-64 64c.039062 35.328125 28.671875 63.960938 64 64zm0-112c26.507812 0 48 21.492188 48 48s-21.492188 48-48 48-48-21.492188-48-48c.027344-26.5 21.5-47.972656 48-48zm0 0"/><path d="m384 160c35.347656 0 64-28.652344 64-64s-28.652344-64-64-64-64 28.652344-64 64c.039062 35.328125 28.671875 63.960938 64 64zm0-112c26.507812 0 48 21.492188 48 48s-21.492188 48-48 48-48-21.492188-48-48c.027344-26.5 21.5-47.972656 48-48zm0 0"/><path d="m208 80h16v16h-16zm0 0"/><path d="m256 80h16v16h-16zm0 0"/><path d="m224 112h32v16h-32zm0 0"/><path d="m64 80h16v16h-16zm0 0"/><path d="m112 80h16v16h-16zm0 0"/><path d="m85.65625 124.289062c5.785156-5.539062 14.902344-5.539062 20.6875 0l11.3125-11.3125c-12.117188-11.574218-31.195312-11.574218-43.3125 0zm0 0"/><path d="m352 80h16v16h-16zm0 0"/><path d="m400 80h16v16h-16zm0 0"/><path d="m384 126.617188c8.125.015624 15.917969-3.210938 21.65625-8.960938l-11.3125-11.3125c-5.71875 5.703125-14.96875 5.703125-20.6875 0l-11.3125 11.3125c5.738281 5.75 13.53125 8.976562 21.65625 8.960938zm0 0"/><path d="m392 392c4.417969 0 8-3.582031 8-8s3.582031-8 8-8 8 3.582031 8 8 3.582031 8 8 8 8-3.582031 8-8c-.003906-2.367188 1.042969-4.617188 2.859375-6.140625 1.8125-1.523437 4.207031-2.160156 6.539063-1.746094 3.996093.980469 6.75 4.632813 6.601562 8.742188v95.144531h16v-95.144531c.152344-11.941407-8.273438-22.273438-20-24.527344-6.980469-1.15625-14.113281.8125-19.511719 5.382813l-.488281.410156c-9.101562-8.171875-22.898438-8.171875-32 0-.78125-.699219-1.613281-1.34375-2.488281-1.921875 1.625-3.863281 2.46875-8.007813 2.488281-12.199219v-112c0-17.671875-14.328125-32-32-32h-24v89.503906c-9.648438 3.234375-16.109375 12.320313-16 22.496094v48h-176v-36.558594l1.121094-.707031c14.234375-9.007813 18.726562-27.707031 10.136718-42.199219-2.753906-4.523437-6.632812-8.253906-11.257812-10.832031v-53.703125h120v-16h-144c-17.671875 0-32 14.328125-32 32v11.390625l-37.679688 21.824219c-16.421874 10.191406-26.382812 28.164062-26.320312 47.488281v159.296875h16v-40h64v40h16v-48c0-4.417969-3.582031-8-8-8h-8v-4.800781c8.558594-9.796875 13.207031-22.398438 13.0625-35.40625.976562.085937 1.945312.246093 2.9375.246093h200v33.871094l-21.230469-12.742187c-6.488281-3.90625-14.523437-4.207031-21.28125-.800781l-1.257812.625c-6.941407 3.46875-11.558594 10.324218-12.164063 18.0625-.609375 7.734374 2.882813 15.226562 9.199219 19.738281l46.734375 33.328125v3.878906h16v-8c0-2.585938-1.25-5.011719-3.351562-6.511719l-50.089844-35.769531c-1.601563-1.15625-2.554688-3.011719-2.558594-4.992188-.007812-2.324218 1.308594-4.449218 3.390625-5.480468l1.25-.621094c1.867187-.953125 4.097656-.867188 5.886719.222656l33.351562 20c2.472656 1.484375 5.546875 1.523438 8.054688.109375 2.511718-1.417969 4.0625-4.074219 4.066406-6.957031v-112c-.003906-2.367188 1.042969-4.617188 2.859375-6.140625 1.8125-1.523437 4.207031-2.160156 6.539063-1.746094 3.996093.980469 6.75 4.632813 6.601562 8.742188v63.144531c0 4.417969 3.582031 8 8 8s8-3.582031 8-8 3.582031-8 8-8 8 3.582031 8 8 3.582031 8 8 8zm-272-168h8v49.601562c-5.871094.089844-11.59375 1.859376-16.488281 5.101563l-7.511719 5.015625v-43.71875c0-8.835938 7.164062-16 16-16zm-29.65625 133.65625c14.539062 14.554688 14.539062 38.132812 0 52.6875-1.5 1.5-2.34375 3.535156-2.34375 5.65625v8h-48v-103.296875c-.0625-13.710937 6.957031-26.484375 18.566406-33.78125l29.433594-17.042969v24.519532l-28.441406 18.960937 8.882812 13.3125 51.949219-34.640625c3.410156-2.265625 7.597656-3.042969 11.589844-2.144531 3.992187.898437 7.445312 3.390625 9.554687 6.898437 4.15625 7.003906 1.984375 16.046875-4.902344 20.398438l-44.871093 28.03125c-2.070313 1.292968-3.433594 3.457031-3.710938 5.878906-.273437 2.421875.570313 4.839844 2.292969 6.5625zm24.328125 9.441406-.167969.476563c-1.515625-4.820313-3.714844-9.398438-6.527344-13.597657l20.023438-12.542968v26.566406h-8c-1.8125.003906-3.617188-.304688-5.328125-.902344zm253.328125-5.730468v-40.511719c.066406-10.390625-6.304688-19.734375-16-23.472657v-73.382812h8c8.835938 0 16 7.164062 16 16v112c0 2.890625-.785156 5.726562-2.273438 8.207031-1.949218.136719-3.875.523438-5.726562 1.160157zm0 0"/><path d="m72 464h16v16h-16zm0 0"/></svg>