<svg height="640pt" viewBox="-20 -20 640 640.00004" width="640pt" xmlns="http://www.w3.org/2000/svg"><path d="m550 240v-30c0-16.566406-13.433594-30-30-30h-30v-90c0-16.566406-13.433594-30-30-30-5.523438 0-10 4.476562-10 10s4.476562 10 10 10 10 4.476562 10 10v90h-40v-110c0-38.664062-31.335938-70-70-70h-170c-11.042969 0-20 8.953125-20 20v160h-40v-90c0-5.523438 4.476562-10 10-10s10-4.476562 10-10-4.476562-10-10-10c-16.566406 0-30 13.433594-30 30v90h-30c-16.566406 0-30 13.433594-30 30v30c-27.613281 0-50 22.386719-50 50v170c0 27.613281 22.386719 50 50 50h40c5.523438 0 10-4.476562 10-10s-4.476562-10-10-10h-40c-16.566406 0-30-13.433594-30-30v-170c0-16.566406 13.433594-30 30-30h500c16.566406 0 30 13.433594 30 30v170c0 16.566406-13.433594 30-30 30h-40c-5.523438 0-10 4.476562-10 10s4.476562 10 10 10h40c27.613281 0 50-22.386719 50-50v-170c0-27.613281-22.386719-50-50-50zm-141-180h-39v-38.597656c19.53125 3.945312 34.855469 19.109375 39 38.597656zm-339 150c0-5.523438 4.476562-10 10-10h90v40h-100zm120-20v-170h160v40c0 11.042969 8.957031 20 20 20h40v160h-220zm240 50v-40h90c5.523438 0 10 4.476562 10 10v30zm0 0"/><path d="m437.300781 453.597656c-1.8125-2.175781-4.46875-3.484375-7.300781-3.597656h-260c-2.925781 0-5.699219 1.277344-7.597656 3.5l-110 130c-2.539063 2.964844-3.121094 7.140625-1.484375 10.683594 1.632812 3.546875 5.179687 5.816406 9.082031 5.816406h490c3.988281.015625 7.601562-2.34375 9.199219-6 1.570312-3.660156.824219-7.902344-1.898438-10.800781zm-355.699219 126.402344 93-110h251l101.601563 110zm0 0"/><path d="m340 540h-170c-5.523438 0-10 4.476562-10 10s4.476562 10 10 10h170c5.523438 0 10-4.476562 10-10s-4.476562-10-10-10zm0 0"/><path d="m390 550c0 5.523438 4.476562 10 10 10h40c5.523438 0 10-4.476562 10-10s-4.476562-10-10-10h-40c-5.523438 0-10 4.476562-10 10zm0 0"/><path d="m190 520h50c5.523438 0 10-4.476562 10-10s-4.476562-10-10-10h-50c-5.523438 0-10 4.476562-10 10s4.476562 10 10 10zm0 0"/><path d="m290 520h110c5.523438 0 10-4.476562 10-10s-4.476562-10-10-10h-110c-5.523438 0-10 4.476562-10 10s4.476562 10 10 10zm0 0"/><path d="m100 470c5.523438 0 10-4.476562 10-10v-20c0-5.523438 4.476562-10 10-10h360c5.523438 0 10 4.476562 10 10v20c0 5.523438 4.476562 10 10 10s10-4.476562 10-10v-20c0-16.566406-13.433594-30-30-30h-360c-16.566406 0-30 13.433594-30 30v20c0 5.523438 4.476562 10 10 10zm0 0"/><path d="m540 290c0-5.523438-4.476562-10-10-10h-460c-11.042969 0-20 8.953125-20 20v60c0 11.042969 8.957031 20 20 20h460c11.042969 0 20-8.957031 20-20v-30c0-5.523438-4.476562-10-10-10s-10 4.476562-10 10v30h-460v-60h460c5.523438 0 10-4.476562 10-10zm0 0"/><path d="m110 320c-5.523438 0-10 4.476562-10 10s4.476562 10 10 10h70c5.523438 0 10-4.476562 10-10s-4.476562-10-10-10zm0 0"/><path d="m220 320c-5.523438 0-10 4.476562-10 10s4.476562 10 10 10h30c5.523438 0 10-4.476562 10-10s-4.476562-10-10-10zm0 0"/><path d="m380 320c-5.523438 0-10 4.476562-10 10s4.476562 10 10 10h40c5.523438 0 10-4.476562 10-10s-4.476562-10-10-10zm0 0"/><path d="m470 330.398438c0 5.523437-4.476562 10-10 10s-10-4.476563-10-10c0-5.519532 4.476562-10 10-10s10 4.480468 10 10zm0 0"/><path d="m510 330.398438c0 5.523437-4.476562 10-10 10s-10-4.476563-10-10c0-5.519532 4.476562-10 10-10s10 4.480468 10 10zm0 0"/></svg>