<svg height="512pt" viewBox="-146 0 512 512" width="512pt" xmlns="http://www.w3.org/2000/svg"><path d="m82.625 86.546875c-5.523438 0-10-4.480469-10-10v-31.730469c0-5.523437 4.476562-10 10-10s10 4.476563 10 10v31.730469c0 5.519531-4.476562 10-10 10zm0 0"/><path d="m138.207031 86.546875c-5.523437 0-10-4.480469-10-10v-31.730469c0-5.523437 4.476563-10 10-10 5.523438 0 10 4.476563 10 10v31.730469c0 5.519531-4.476562 10-10 10zm0 0"/><path d="m210.828125 98.023438h-14.070313v-88.023438c0-5.523438-4.476562-10-10-10h-152.683593c-5.523438 0-10 4.476562-10 10v88.023438h-14.074219c-5.523438 0-10 4.476562-10 10v293.601562c0 60.859375 49.53125 110.375 110.414062 110.375 60.882813 0 110.414063-49.515625 110.414063-110.375v-293.601562c0-5.523438-4.476563-10-10-10zm-166.753906-78.023438h132.683593v78.023438h-132.683593zm-24.074219 98.023438h180.828125v43.910156h-180.828125zm180.828125 283.601562c0 49.835938-40.558594 90.375-90.414063 90.375-49.855468 0-90.414062-40.539062-90.414062-90.375v-219.695312h180.828125zm0 0"/><path d="m110.414062 463.296875c33.796876 0 61.289063-27.484375 61.289063-61.269531s-27.492187-61.269532-61.289063-61.269532c-15.890624 0-30.386718 6.074219-41.289062 16.027344v-92.148437c0-5.523438-4.476562-10-10-10s-10 4.476562-10 10v137.390625c0 33.785156 27.492188 61.269531 61.289062 61.269531zm0-102.539063c22.769532 0 41.289063 18.511719 41.289063 41.269532 0 22.753906-18.519531 41.269531-41.289063 41.269531-22.765624 0-41.289062-18.511719-41.289062-41.269531 0-22.757813 18.523438-41.269532 41.289062-41.269532zm0 0"/><path d="m59.125 232.128906c-.648438 0-1.308594-.070312-1.949219-.1875-.640625-.132812-1.269531-.332031-1.871093-.582031-.609376-.25-1.191407-.550781-1.730469-.910156-.550781-.371094-1.058594-.789063-1.519531-1.25-.460938-.460938-.878907-.96875-1.238282-1.519531-.363281-.539063-.671875-1.121094-.921875-1.71875-.25-.609376-.449219-1.242188-.570312-1.871094-.128907-.648438-.199219-1.308594-.199219-1.960938 0-.648437.070312-1.308594.199219-1.949218.121093-.640626.320312-1.269532.570312-1.871094.25-.609375.558594-1.191406.921875-1.730469.359375-.546875.777344-1.058594 1.238282-1.519531.460937-.457032.96875-.878906 1.519531-1.238282.539062-.359374 1.121093-.671874 1.730469-.921874.601562-.25 1.230468-.449219 1.871093-.570313 3.25-.65625 6.699219.410156 9.019531 2.730469.460938.460937.878907.972656 1.238282 1.519531.363281.539063.671875 1.121094.921875 1.730469.25.601562.449219 1.230468.570312 1.871094.128907.640624.199219 1.300781.199219 1.949218 0 .652344-.070312 1.3125-.199219 1.960938-.121093.628906-.320312 1.261718-.570312 1.871094-.25.597656-.558594 1.179687-.921875 1.71875-.359375.550781-.777344 1.058593-1.238282 1.519531-1.859374 1.859375-4.441406 2.929687-7.070312 2.929687zm0 0"/></svg>