<svg height="496pt" viewBox="0 -15 496 495" width="496pt" xmlns="http://www.w3.org/2000/svg"><path d="m496 48.5v-48h-496v48h32v368h-32v48h112v-48h-32v-64h336v64h-32v48h112v-48h-32v-368zm-480-32h464v16h-96v16h32v16h-336v-16h288v-16h-352zm400 256.992188c-7.023438 1.847656-11.496094 5.902343-15 9.085937-2.464844 2.242187-4.398438 3.851563-6.769531 4.84375l-1.300781-1.304687c-22.632813-22.640626-40.144532-49.183594-52.035157-78.90625-9.390625-23.519532-31.839843-38.710938-57.167969-38.710938-24.933593 0-47.253906 14.878906-56.847656 37.910156l-1.878906 4.539063c-11.351562 27.246093-27.511719 51.832031-48.039062 73.054687l-3.738282 3.863282c-2.941406-.878907-5.046875-2.695313-7.894531-5.289063-4.6875-4.246094-11.097656-10.078125-22.992187-10.078125-11.886719 0-18.289063 5.832031-22.96875 10.089844-4.054688 3.6875-6.511719 5.910156-12.199219 5.910156s-8.152344-2.222656-12.199219-5.921875c-3.496094-3.175781-7.960938-7.238281-14.960938-9.078125v-193h336v60.449219c-4.734374-2.753907-10.152343-4.449219-16.007812-4.449219-5.640625 0-11.152344 1.519531-16 4.367188-4.847656-2.847657-10.359375-4.367188-16-4.367188-17.648438 0-32 14.351562-32 32h16c0-8.824219 7.175781-16 16-16 3.878906 0 7.65625 1.488281 10.648438 4.167969l5.351562 4.824219 5.351562-4.824219c2.992188-2.679688 6.769532-4.167969 10.648438-4.167969 8.824219 0 16 7.175781 16 16zm-55.542969-.207032c-2.097656-.472656-4.367187-.785156-6.945312-.785156-11.894531 0-18.304688 5.832031-22.992188 10.078125-4.054687 3.699219-6.511719 5.921875-12.222656 5.921875s-8.160156-2.222656-12.21875-5.921875c-4.679687-4.246094-11.085937-10.078125-22.972656-10.078125-11.882813 0-18.289063 5.832031-22.96875 10.078125-4.058594 3.699219-6.511719 5.921875-12.214844 5.921875-5.714844 0-8.160156-2.222656-12.21875-5.921875-4.679687-4.246094-11.085937-10.078125-22.976563-10.078125-1.910156 0-3.628906.191406-5.269531.464844 13.085938-17.121094 23.949219-35.792969 32.3125-55.863282l1.878907-4.539062c7.105468-17.046875 23.617187-28.0625 42.078124-28.0625 18.753907 0 35.363282 11.238281 42.3125 28.648438 8.695313 21.734374 20.265626 41.832031 34.417969 60.136718zm-264.457031 175.214844h-80v-16h80zm-48-32v-368h16v368zm32-80v-45.527344c1.34375.933594 2.65625 2.039063 4.191406 3.4375 4.671875 4.257813 11.082032 10.089844 22.976563 10.089844s18.289062-5.832031 22.96875-10.089844c4.046875-3.6875 6.503906-5.910156 12.199219-5.910156 5.710937 0 8.160156 2.222656 12.214843 5.921875 4.679688 4.246094 11.089844 10.078125 22.976563 10.078125 11.898437 0 18.304687-5.832031 22.984375-10.089844 4.054687-3.6875 6.511719-5.910156 12.214843-5.910156 5.707032 0 8.160157 2.222656 12.210938 5.910156 4.679688 4.257813 11.085938 10.089844 22.984375 10.089844 11.886719 0 18.292969-5.832031 22.972656-10.089844 4.058594-3.6875 6.511719-5.910156 12.210938-5.910156 5.703125 0 8.160156 2.222656 12.207031 5.910156 4.679688 4.257813 11.085938 10.089844 22.984375 10.089844 11.894531 0 18.304687-5.832031 22.992187-10.078125 4.0625-3.699219 6.511719-5.921875 12.222657-5.921875 5.71875 0 8.167969 2.222656 12.242187 5.921875 4.679688 4.246094 11.09375 10.078125 23 10.078125 11.894532 0 18.308594-5.824219 22.988282-10.078125 1.5625-1.417969 2.890624-2.539063 4.25-3.472656v45.550781zm400 112h-80v-16h80zm-32-32h-16v-368h16zm0 0"/><path d="m160 128.5c-17.648438 0-32 14.351562-32 32s14.351562 32 32 32 32-14.351562 32-32-14.351562-32-32-32zm0 48c-8.824219 0-16-7.175781-16-16s7.175781-16 16-16 16 7.175781 16 16-7.175781 16-16 16zm0 0"/><path d="m152 96.5h16v16h-16zm0 0"/><path d="m109.082031 120.902344 11.316407-11.3125 11.316406 11.316406-11.3125 11.316406zm0 0"/><path d="m96 152.5h16v16h-16zm0 0"/><path d="m109.085938 200.101562 11.320312-11.320312 11.3125 11.3125-11.320312 11.320312zm0 0"/><path d="m152 208.5h16v16h-16zm0 0"/><path d="m188.277344 200.09375 11.316406-11.316406 11.316406 11.320312-11.3125 11.3125zm0 0"/><path d="m208 152.5h16v16h-16zm0 0"/><path d="m188.277344 120.90625 11.316406-11.320312 11.316406 11.3125-11.320312 11.320312zm0 0"/><path d="m312 96.5c-5.640625 0-11.152344 1.519531-16 4.367188-4.847656-2.847657-10.359375-4.367188-16-4.367188-17.648438 0-32 14.351562-32 32h16c0-8.824219 7.175781-16 16-16 3.878906 0 7.65625 1.488281 10.648438 4.167969l5.351562 4.824219 5.351562-4.824219c2.992188-2.679688 6.769532-4.167969 10.648438-4.167969 8.824219 0 16 7.175781 16 16h16c0-17.648438-14.351562-32-32-32zm0 0"/></svg>