<!DOCTYPE svg PUBLIC "-//W3C//DTD SVG 20010904//EN" "http://www.w3.org/TR/2001/REC-SVG-20010904/DTD/svg10.dtd">
<svg version="1.0" xmlns="http://www.w3.org/2000/svg" width="512px" height="512px" viewBox="0 0 5120 5120" preserveAspectRatio="xMidYMid meet">
<g id="layer101" fill="#000000" stroke="none">
 <path d="M0 2560 l0 -2560 2560 0 2560 0 0 2560 0 2560 -2560 0 -2560 0 0 -2560z"/>
 </g>
<g id="layer102" fill="#ffffff" stroke="none">
 <path d="M0 2560 l0 -2560 2560 0 2560 0 0 2560 0 2560 -2560 0 -2560 0 0 -2560z m1432 2260 c61 -19 93 -20 1168 -20 1075 0 1107 1 1168 20 35 11 85 20 112 20 27 0 77 -9 112 -20 47 -15 91 -20 176 -20 l112 0 0 -60 0 -60 -41 0 -41 0 25 -42 c94 -162 67 -347 -70 -479 -122 -117 -264 -147 -418 -89 -84 32 -193 141 -225 225 -44 118 -35 237 27 342 l25 43 -962 0 -962 0 25 -42 c32 -55 57 -140 57 -195 l0 -43 820 0 820 0 0 -60 0 -60 -838 0 -838 0 -22 -39 c-34 -60 -133 -146 -199 -172 -81 -32 -205 -32 -286 0 -66 26 -171 117 -202 175 l-20 36 -317 0 -318 0 0 60 0 60 300 0 300 0 0 43 c0 55 25 140 56 195 l25 42 -301 0 -300 0 0 60 0 60 373 0 c340 0 377 2 432 20 78 25 148 25 227 0z m3288 -80 l0 -60 -100 0 -100 0 0 60 0 60 100 0 100 0 0 -60z m118 -737 l-3 -398 -31 -55 c-17 -30 -44 -77 -61 -105 -27 -44 -36 -80 -72 -285 -53 -301 -61 -326 -108 -372 -71 -69 -62 -68 -558 -68 l-445 0 0 600 0 600 199 0 c109 0 222 5 252 10 193 37 347 197 380 398 l12 72 219 0 219 0 -3 -397z m-4238 17 l0 -140 1380 0 1380 0 0 -60 0 -60 -200 0 -200 0 0 -204 0 -204 239 -229 240 -228 0 -247 1 -246 -27 -6 c-21 -4 -725 -105 -1043 -149 -17 -2 -37 103 -21 112 5 3 226 37 490 75 l481 70 -1 170 -1 171 -227 217 -226 217 -150 0 -150 0 273 -267 273 -267 -40 -39 c-23 -23 -52 -40 -68 -42 -58 -6 -1949 -286 -1962 -290 -9 -3 38 -40 112 -89 l126 -85 3 -127 3 -127 160 -27 c88 -14 669 -109 1292 -209 l1131 -184 59 -220 60 -221 266 -3 267 -2 0 -320 0 -320 40 0 40 0 0 -60 0 -60 -660 0 -660 0 0 60 0 60 40 0 40 0 0 320 0 319 105 3 105 3 -33 36 c-29 31 -42 37 -107 47 -215 34 -2607 392 -2617 392 -10 0 -13 94 -13 449 l0 449 28 6 c15 3 488 73 1052 156 564 84 1026 152 1027 154 1 1 -115 115 -258 254 l-261 252 -54 0 -54 0 0 240 0 240 -440 0 -440 0 0 -240 0 -240 -340 0 -340 0 0 240 0 240 -120 0 -120 0 0 200 0 200 60 0 60 0 0 -140z m1585 -1717 c3 -21 8 -48 10 -59 4 -20 -2 -23 -72 -33 -42 -6 -78 -10 -80 -7 -4 4 -22 110 -19 113 2 2 112 19 143 22 7 0 15 -16 18 -36z m-312 -65 c4 -29 3 -56 -1 -59 -4 -4 -39 -11 -78 -14 l-72 -7 -7 52 c-4 28 -3 56 1 60 9 9 52 16 115 18 l36 2 6 -52z m-318 -44 c4 -31 5 -57 3 -60 -5 -4 -150 -25 -153 -22 -1 2 -6 28 -9 60 l-7 56 63 10 c102 15 95 18 103 -44z"/>
 <path d="M1127 4648 c-61 -58 -82 -111 -82 -208 0 -77 3 -90 31 -140 74 -133 249 -179 386 -103 59 33 111 100 129 166 27 99 -14 238 -87 293 -29 23 -38 24 -187 24 l-156 0 -34 -32z m241 -108 c94 -57 94 -183 0 -240 -117 -71 -259 71 -188 188 26 42 76 72 120 72 19 0 50 -9 68 -20z"/>
 <path d="M3687 4648 c-61 -58 -82 -111 -82 -208 0 -77 3 -90 31 -140 74 -133 249 -179 386 -103 59 33 111 100 129 166 27 99 -14 238 -87 293 -29 23 -38 24 -187 24 l-156 0 -34 -32z m281 -108 c94 -57 94 -183 0 -240 -117 -71 -259 71 -188 188 26 42 76 72 120 72 19 0 50 -9 68 -20z"/>
 <path d="M4496 4246 c-24 -127 -175 -308 -316 -379 -102 -51 -186 -67 -357 -67 l-143 0 0 -480 0 -480 384 0 385 0 25 23 c23 20 30 47 77 307 l51 285 56 83 57 84 3 329 3 329 -109 0 -110 0 -6 -34z m-61 -878 c-3 -18 -16 -101 -29 -184 -25 -170 -41 -207 -102 -241 -37 -22 -49 -23 -271 -23 l-233 0 0 240 0 240 320 0 321 0 -6 -32z"/>
 <path d="M3920 3160 l0 -120 169 0 c153 0 170 2 175 18 2 9 10 51 16 92 6 41 13 87 16 103 l6 27 -191 0 -191 0 0 -120z"/>
 <path d="M840 3580 l0 -180 220 0 220 0 0 180 0 180 -220 0 -220 0 0 -180z"/>
 <path d="M2400 3580 l0 -180 220 0 220 0 0 180 0 180 -220 0 -220 0 0 -180z"/>
 <path d="M920 2010 l0 -281 120 91 120 91 0 113 0 113 -115 76 c-63 43 -117 77 -120 77 -3 0 -5 -126 -5 -280z"/>
 <path d="M1138 1743 c-65 -48 -116 -88 -115 -90 2 -1 574 -88 1272 -193 l1269 -191 89 -94 89 -95 59 0 c41 0 59 4 59 13 -1 6 -20 82 -44 167 -41 148 -44 155 -72 163 -16 4 -571 95 -1234 202 -663 107 -1216 197 -1230 200 -20 5 -48 -12 -142 -82z"/>
 <path d="M3480 860 l0 -100 80 0 80 0 0 -60 0 -60 -80 0 -80 0 0 -100 0 -100 460 0 460 0 0 260 0 260 -460 0 -460 0 0 -100z m480 -160 l0 -60 -80 0 -80 0 0 60 0 60 80 0 80 0 0 -60z m320 0 l0 -60 -80 0 -80 0 0 60 0 60 80 0 80 0 0 -60z"/>
 </g>

</svg>