<?xml version="1.0" encoding="iso-8859-1"?>
<!-- Generator: Adobe Illustrator 19.0.0, SVG Export Plug-In . SVG Version: 6.00 Build 0)  -->
<svg version="1.1" id="Capa_1" xmlns="http://www.w3.org/2000/svg" xmlns:xlink="http://www.w3.org/1999/xlink" x="0px" y="0px"
	 viewBox="0 0 496 496" style="enable-background:new 0 0 496 496;" xml:space="preserve">
<g>
	<g>
		<rect x="320" y="232" width="16" height="16"/>
	</g>
</g>
<g>
	<g>
		<rect x="320" y="264" width="16" height="16"/>
	</g>
</g>
<g>
	<g>
		<rect x="55.452" y="271.999" transform="matrix(0.7071 -0.7071 0.7071 0.7071 -165.1815 161.2135)" width="113.119" height="16"/>
	</g>
</g>
<g>
	<g>
		<path d="M152,280c-13.232,0-24,10.768-24,24s10.768,24,24,24s24-10.768,24-24S165.232,280,152,280z M152,312c-4.416,0-8-3.584-8-8
			c0-4.416,3.584-8,8-8s8,3.584,8,8C160,308.416,156.416,312,152,312z"/>
	</g>
</g>
<g>
	<g>
		<path d="M72,232c-13.232,0-24,10.768-24,24s10.768,24,24,24s24-10.768,24-24S85.232,232,72,232z M72,264c-4.416,0-8-3.584-8-8
			c0-4.416,3.584-8,8-8s8,3.584,8,8C80,260.416,76.416,264,72,264z"/>
	</g>
</g>
<g>
	<g>
		<path d="M448,88v-8c0-44.112-35.888-80-80-80c-14.576,0-28.216,3.984-40,10.824C316.216,3.984,302.576,0,288,0
			c-44.112,0-80,35.888-80,80v8h-64v96H40c-22.056,0-40,17.944-40,40v112c0,22.056,17.944,40,40,40h231.544L224,309.44V224
			c0-22.056-17.944-40-40-40h-24v-80h48v24h16v-24h96v84l-32,24v100h80V212l-32-24v-84h16v24h16v-24h48v376H160v-88h-16v104h352V88
			H448z M184,200c13.232,0,24,10.768,24,24v90.56L240.456,360H40c-13.232,0-24-10.768-24-24V224c0-13.232,10.768-24,24-24H184z
			 M288,88h-64v-8c0-35.288,28.712-64,64-64c9.144,0,17.824,1.96,25.696,5.424C297.936,36.048,288,56.864,288,80V88z M352,220v76
			h-48v-76l24-18L352,220z M352,88h-48v-8c0-20.16,9.392-38.144,24-49.88c14.608,11.736,24,29.72,24,49.88V88z M368,88v-8
			c0-23.136-9.936-43.952-25.696-58.576C350.176,17.96,358.856,16,368,16c35.288,0,64,28.712,64,64v8H368z M440.648,480L456,460.808
			L471.352,480H440.648z M480,465.192l-16-20V152h-16v293.192l-16,20V104h48V465.192z"/>
	</g>
</g>
<g>
	<g>
		<rect x="448" y="120" width="16" height="16"/>
	</g>
</g>
<g>
</g>
<g>
</g>
<g>
</g>
<g>
</g>
<g>
</g>
<g>
</g>
<g>
</g>
<g>
</g>
<g>
</g>
<g>
</g>
<g>
</g>
<g>
</g>
<g>
</g>
<g>
</g>
<g>
</g>
</svg>
