<?xml version="1.0" encoding="iso-8859-1"?>
<!-- Generator: Adobe Illustrator 19.0.0, SVG Export Plug-In . SVG Version: 6.00 Build 0)  -->
<svg version="1.1" id="Capa_1" xmlns="http://www.w3.org/2000/svg" xmlns:xlink="http://www.w3.org/1999/xlink" x="0px" y="0px"
	 viewBox="0 0 499.664 499.664" style="enable-background:new 0 0 499.664 499.664;" xml:space="preserve">
<g>
	<g>
		<path d="M121.832,162.712v176h256v-176H121.832z M361.832,322.712h-224v-144h224V322.712z"/>
	</g>
</g>
<g>
	<g>
		<rect x="193.832" y="226.712" width="112" height="16"/>
	</g>
</g>
<g>
	<g>
		<polygon points="329.832,274.712 329.832,290.712 313.832,290.712 313.832,306.712 345.832,306.712 345.832,274.712 		"/>
	</g>
</g>
<g>
	<g>
		<polygon points="169.832,290.712 169.832,274.712 153.832,274.712 153.832,306.712 185.832,306.712 185.832,290.712 		"/>
	</g>
</g>
<g>
	<g>
		<polygon points="313.832,194.712 313.832,210.712 329.832,210.712 329.832,226.712 345.832,226.712 345.832,194.712 		"/>
	</g>
</g>
<g>
	<g>
		<polygon points="153.832,194.712 153.832,226.712 169.832,226.712 169.832,210.712 185.832,210.712 185.832,194.712 		"/>
	</g>
</g>
<g>
	<g>
		<path d="M490.032,218.52c4.888-5.96,7.8-13.552,7.8-21.744c0-1.784-0.144-3.56-0.416-5.344L480.688,85.496
			c-4.68-29.624-27.584-53.488-57-59.368L297.832,0.952v9.76c0,26.472-21.528,48-48,48s-48-21.528-48-48v-9.76L75.976,26.128
			c-29.408,5.88-52.32,29.744-57,59.368L2.248,191.448c-0.272,1.76-0.416,3.544-0.416,5.328c0,8.192,2.912,15.784,7.8,21.744
			L0,257.056l89.832,16.328v169.328c0,10.416,6.712,19.216,16,22.528v33.472h288V465.24c9.288-3.312,16-12.112,16-22.528V273.384
			l89.832-16.328L490.032,218.52z M313.112,20.32l15.64,3.136c-2.272,14.376-8.248,27.32-16.92,37.944l-11.496-11.496
			C306.904,41.464,311.44,31.368,313.112,20.32z M257.832,74.152c11.664-1.464,22.336-6.064,31.184-12.944l11.504,11.504
			c-11.872,9.688-26.552,16.024-42.688,17.6V74.152z M210.648,61.208c8.848,6.88,19.52,11.48,31.184,12.944v16.16
			c-16.136-1.576-30.816-7.912-42.688-17.6L210.648,61.208z M186.552,20.328c1.672,11.04,6.208,21.136,12.776,29.576L187.832,61.4
			c-8.672-10.624-14.648-23.576-16.92-37.944L186.552,20.328z M89.832,257.136l-70.168-12.768l3.928-15.72
			c2.04,0.8,4.16,1.456,6.392,1.856l59.848,10.888V257.136z M409.832,257.128v-15.744l59.848-10.88
			c2.224-0.408,4.344-1.056,6.384-1.856l3.928,15.72L409.832,257.128z M466.824,214.768l-56.992,10.36V122.712h-16v320
			c0,4.416-3.592,8-8,8h-24v16h16v16h-256v-16h224v-16h-232c-4.408,0-8-3.584-8-8v-320h-16v102.416l-56.984-10.36
			c-8.704-1.584-15.016-9.152-15.016-17.992c0-0.96,0.08-1.92,0.224-2.856L34.784,87.992c3.64-23.048,21.448-41.608,44.328-46.176
			L155.208,26.6c7.6,46.136,47.04,80.112,94.624,80.112s87.024-33.976,94.624-80.12l76.096,15.216
			c22.88,4.576,40.688,23.136,44.336,46.176l16.72,105.912c0.144,0.96,0.224,1.92,0.224,2.88
			C481.832,205.616,475.52,213.184,466.824,214.768z"/>
	</g>
</g>
<g>
	<g>
		<rect x="193.832" y="258.712" width="16" height="16"/>
	</g>
</g>
<g>
	<g>
		<rect x="225.832" y="258.712" width="16" height="16"/>
	</g>
</g>
<g>
	<g>
		<rect x="257.832" y="258.712" width="16" height="16"/>
	</g>
</g>
<g>
	<g>
		<rect x="289.832" y="258.712" width="16" height="16"/>
	</g>
</g>
<g>
</g>
<g>
</g>
<g>
</g>
<g>
</g>
<g>
</g>
<g>
</g>
<g>
</g>
<g>
</g>
<g>
</g>
<g>
</g>
<g>
</g>
<g>
</g>
<g>
</g>
<g>
</g>
<g>
</g>
</svg>
