<?xml version="1.0" encoding="UTF-8" standalone="no"?>
<!-- Created with Inkscape (http://www.inkscape.org/) -->

<svg
   xmlns:dc="http://purl.org/dc/elements/1.1/"
   xmlns:cc="http://creativecommons.org/ns#"
   xmlns:rdf="http://www.w3.org/1999/02/22-rdf-syntax-ns#"
   xmlns:svg="http://www.w3.org/2000/svg"
   xmlns="http://www.w3.org/2000/svg"
   xmlns:sodipodi="http://sodipodi.sourceforge.net/DTD/sodipodi-0.dtd"
   xmlns:inkscape="http://www.inkscape.org/namespaces/inkscape"
   width="135.46945mm"
   height="135.46953mm"
   viewBox="0 0 135.46945 135.46953"
   version="1.1"
   id="svg8"
   inkscape:version="0.92.3 (2405546, 2018-03-11)"
   sodipodi:docname="phone.svg">
  <defs
     id="defs2" />
  <sodipodi:namedview
     id="base"
     pagecolor="#ffffff"
     bordercolor="#666666"
     borderopacity="1.0"
     inkscape:pageopacity="0.0"
     inkscape:pageshadow="2"
     inkscape:zoom="0.35"
     inkscape:cx="3681.7196"
     inkscape:cy="-75.423169"
     inkscape:document-units="mm"
     inkscape:current-layer="layer1"
     showgrid="false"
     inkscape:window-width="3840"
     inkscape:window-height="2066"
     inkscape:window-x="-11"
     inkscape:window-y="-11"
     inkscape:window-maximized="1" />
  <metadata
     id="metadata5">
    <rdf:RDF>
      <cc:Work
         rdf:about="">
        <dc:format>image/svg+xml</dc:format>
        <dc:type
           rdf:resource="http://purl.org/dc/dcmitype/StillImage" />
        <dc:title></dc:title>
      </cc:Work>
    </rdf:RDF>
  </metadata>
  <g
     inkscape:label="Layer 1"
     inkscape:groupmode="layer"
     id="layer1"
     transform="translate(1020.9907,6.5919084)">
    <path
       id="path10"
       d="m -1016.0694,-0.08029727 27.51662,-6.35000003 c 2.98979,-0.6879166 6.05896,0.873125 7.27604,3.6777083 l 12.7,29.633334 c 1.11125,2.592916 0.37042,5.635625 -1.82562,7.408333 l -16.03375,13.123333 c 9.525,20.293542 26.16729,37.173959 46.88416,46.884162 l 13.12334,-16.033745 c 1.79916,-2.196042 4.81541,-2.936875 7.40833,-1.825625 l 29.63334,12.7 c 2.831,1.243542 4.3921,4.31271 3.7042,7.3025 l -6.35,27.516667 c -0.6615,2.8575 -3.2015,4.92125 -6.1913,4.92125 -67.75978,0 -122.76666,-54.901042 -122.76666,-122.7666673 0,-2.9633333 2.0373,-5.52979167 4.9213,-6.19124997 z"
       inkscape:connector-curvature="0"
       style="fill:#ffffff;stroke-width:0.26458332" />
  </g>
</svg>
