<?xml version="1.0" encoding="iso-8859-1"?>
<!-- Generator: Adobe Illustrator 19.0.0, SVG Export Plug-In . SVG Version: 6.00 Build 0)  -->
<svg version="1.1" id="Capa_1" xmlns="http://www.w3.org/2000/svg" xmlns:xlink="http://www.w3.org/1999/xlink" x="0px" y="0px"
	 viewBox="0 0 496 496" style="enable-background:new 0 0 496 496;" xml:space="preserve">
<g>
	<g>
		<path d="M470.248,0H25.752L0.24,102.056L0,112c0,26.472,21.528,48,48,48v320H32v16h432v-16h-16V160c26.472,0,48-21.528,48-48v-8
			L470.248,0z M256,16h56.64l6.664,80H256V16z M320,112c0,17.648-14.352,32-32,32s-32-14.352-32-32H320z M183.36,16H240v80h-63.304
			L183.36,16z M240,112c0,17.648-14.352,32-32,32s-32-14.352-32-32H240z M110.776,16h56.528l-6.664,80h-63.2L110.776,16z M160,112
			c0,17.648-14.352,32-32,32s-32-14.352-32-32H160z M80,480H64V157.2c5.968-2.12,11.376-5.376,16-9.52V480z M48,144
			c-17.648,0-32-14.352-32-32h64C80,129.648,65.648,144,48,144z M81.224,96H18.248l20-80H94.56L81.224,96z M208,480h-64v-56h64V480z
			 M128,408v-16h96v16H128z M352,480h-64v-56h64V480z M272,408v-16h96v16H272z M400,480h-32v-56h16v-48H256v48h16v56h-48v-56h16v-48
			H112v48h16v56H96V352h304V480z M400,336H96V147.68c8.504,7.632,19.696,12.32,32,12.32c16.688,0,31.392-8.568,40-21.52
			c8.608,12.96,23.312,21.52,40,21.52s31.392-8.568,40-21.52c8.608,12.96,23.312,21.52,40,21.52s31.392-8.568,40-21.52
			c8.608,12.952,23.312,21.52,40,21.52c12.304,0,23.496-4.688,32-12.32V336z M368,144c-17.648,0-32-14.352-32-32h64
			C400,129.648,385.648,144,368,144z M406.56,46.68l-15.784,2.632L398.56,96h-63.2l-6.664-80h56.528l2.888,17.32l15.784-2.632
			L401.44,16h56.312l20,80h-62.976L406.56,46.68z M432,480h-16V147.68c4.624,4.152,10.032,7.408,16,9.52V480z M448,144
			c-17.648,0-32-14.352-32-32h64C480,129.648,465.648,144,448,144z"/>
	</g>
</g>
<g>
	<g>
		<path d="M112,192v112h112V192H112z M208,288h-80v-80h80V288z"/>
	</g>
</g>
<g>
	<g>
		<rect x="240" y="192" width="144" height="16"/>
	</g>
</g>
<g>
	<g>
		<rect x="240" y="288" width="112" height="16"/>
	</g>
</g>
<g>
	<g>
		<rect x="240" y="224" width="144" height="16"/>
	</g>
</g>
<g>
	<g>
		<rect x="240" y="256" width="144" height="16"/>
	</g>
</g>
<g>
	<g>
		<rect y="480" width="16" height="16"/>
	</g>
</g>
<g>
	<g>
		<rect x="480" y="480" width="16" height="16"/>
	</g>
</g>
<g>
	<g>
		<rect x="368" y="288" width="16" height="16"/>
	</g>
</g>
<g>
</g>
<g>
</g>
<g>
</g>
<g>
</g>
<g>
</g>
<g>
</g>
<g>
</g>
<g>
</g>
<g>
</g>
<g>
</g>
<g>
</g>
<g>
</g>
<g>
</g>
<g>
</g>
<g>
</g>
</svg>
