<?xml version="1.0" encoding="iso-8859-1"?>
<!-- Generator: Adobe Illustrator 19.0.0, SVG Export Plug-In . SVG Version: 6.00 Build 0)  -->
<svg version="1.1" id="Capa_1" xmlns="http://www.w3.org/2000/svg" xmlns:xlink="http://www.w3.org/1999/xlink" x="0px" y="0px"
	 viewBox="0 0 496 496" style="enable-background:new 0 0 496 496;" xml:space="preserve">
<g>
	<g>
		<path d="M472,336V64h-64V48h32V0h-80v48h32v16H256V48h32V0h-80v48h32v16H104V48h32V0H56v48h32v16H24v272h32v144H40v16h96v-16h-16
			V336h256v144h-16v16h96v-16h-16V336H472z M376,32V16h48v16H376z M224,32V16h48v16H224z M72,32V16h48v16H72z M72,480v-28.688
			L100.688,480H72z M104,460.688L75.312,432H104V460.688z M72,396.688V368h28.688L72,396.688z M104,416H75.312L104,387.312V416z
			 M104,352H72v-16h32V352z M420.688,432L392,460.688V432H420.688z M392,416v-28.688L420.688,416H392z M424,480h-28.688L424,451.312
			V480z M424,396.688L395.312,368H424V396.688z M424,352h-32v-16h32V352z M40,320V80h416v240H40z"/>
	</g>
</g>
<g>
	<g>
		<polygon points="56,96 56,304 392,304 392,288 72,288 72,112 424,112 424,288 408,288 408,304 440,304 440,96 		"/>
	</g>
</g>
<g>
	<g>
		<path d="M104,144v112h152V144H104z M240,240H120v-80h120V240z"/>
	</g>
</g>
<g>
	<g>
		<rect x="272" y="144" width="120" height="16"/>
	</g>
</g>
<g>
	<g>
		<rect x="272" y="208" width="120" height="16"/>
	</g>
</g>
<g>
	<g>
		<rect x="272" y="240" width="88" height="16"/>
	</g>
</g>
<g>
	<g>
		<rect x="272" y="176" width="120" height="16"/>
	</g>
</g>
<g>
	<g>
		<rect x="376" y="240" width="16" height="16"/>
	</g>
</g>
<g>
</g>
<g>
</g>
<g>
</g>
<g>
</g>
<g>
</g>
<g>
</g>
<g>
</g>
<g>
</g>
<g>
</g>
<g>
</g>
<g>
</g>
<g>
</g>
<g>
</g>
<g>
</g>
<g>
</g>
</svg>
