<svg height="496pt" viewBox="-40 0 496 496" width="496pt" xmlns="http://www.w3.org/2000/svg"><path d="m408 160h-24v-72c0-4.414062-3.574219-8-8-8h-64c-4.425781 0-8 3.585938-8 8v72h-46.535156l6.230468-21.800781c.601563-2.128907.304688-4.414063-.832031-6.320313l-48-80c-2.886719-4.824218-10.832031-4.824218-13.71875 0l-48 80c-1.144531 1.898438-1.441406 4.183594-.832031 6.320313l6.222656 21.800781h-46.535156v-24c0-1.574219-.472656-3.128906-1.34375-4.441406l-32-48c-2.96875-4.453125-10.34375-4.453125-13.3125 0l-32 48c-.871094 1.3125-1.34375 2.867187-1.34375 4.441406v24h-24c-4.425781 0-8 3.585938-8 8v240c0 4.414062 3.574219 8 8 8h160v32h-32c-22.054688 0-40 17.945312-40 40 0 4.414062 3.574219 8 8 8h208c4.425781 0 8-3.585938 8-8 0-22.054688-17.945312-40-40-40h-32v-32h160c4.425781 0 8-3.585938 8-8v-240c0-4.414062-3.574219-8-8-8zm-40-64v272h-48v-16h16v-16h-16v-16h32v-16h-32v-16h16v-16h-16v-16h32v-16h-32v-16h16v-16h-16v-16h32v-16h-32v-16h16v-16h-16v-16h32v-16h-32v-16zm-152 48c0 4.40625-3.585938 8-8 8s-8-3.59375-8-8 3.585938-8 8-8 8 3.59375 8 8zm-16-59.113281v36.59375c-9.289062 3.3125-16 12.113281-16 22.527343 0 13.230469 10.769531 24 24 24s24-10.769531 24-24c0-10.414062-6.710938-19.214843-16-22.527343v-36.59375l31.351562 52.257812-13.390624 46.855469h-51.929688l-13.390625-46.855469zm32.023438 178.546875-7.472657 104.566406h-33.109375l-7.441406-104v-32h48.015625zm-48.023438-47.433594v-16h48l.007812 16zm-120-64v168h-16v-168zm-16 184h48v8c0 13.230469-10.769531 24-24 24s-24-10.769531-24-24zm48-16h-16v-168h16zm-24-217.574219 22.382812 33.574219h-44.765624zm230.632812 377.574219h-189.265624c3.304687-9.3125 12.199218-16 22.632812-16h144c10.433594 0 19.328125 6.6875 22.632812 16zm-70.632812-32h-48v-32h48zm168-48h-384v-224h16v168c0 22.054688 17.945312 40 40 40s40-17.945312 40-40v-168h51.105469l2.285156 8h-13.390625v16h16l.007812 16h-32.007812v16h32.015625l.007813 32.566406 8 112c.296874 4.195313 3.785156 7.433594 7.976562 7.433594h48c4.191406 0 7.679688-3.238281 7.976562-7.433594l8.023438-112.566406v-32h32v-16h-32v-16h16v-16h-13.390625l2.285156-8h51.105469v200c0 4.414062 3.574219 8 8 8h64c4.425781 0 8-3.585938 8-8v-200h16zm0 0"/><path d="m96 48c10.414062 0 19.214844-6.710938 22.527344-16h65.472656v8c0 4.414062 3.574219 8 8 8h32c4.425781 0 8-3.585938 8-8v-8h65.472656c3.3125 9.289062 12.113282 16 22.527344 16 13.230469 0 24-10.769531 24-24s-10.769531-24-24-24c-10.414062 0-19.214844 6.710938-22.527344 16h-65.472656v-8c0-4.414062-3.574219-8-8-8h-32c-4.425781 0-8 3.585938-8 8v8h-65.472656c-3.3125-9.289062-12.113282-16-22.527344-16-13.230469 0-24 10.769531-24 24s10.769531 24 24 24zm224-32c4.414062 0 8 3.59375 8 8s-3.585938 8-8 8-8-3.59375-8-8 3.585938-8 8-8zm-120 0h16v16h-16zm-104 0c4.414062 0 8 3.59375 8 8s-3.585938 8-8 8-8-3.59375-8-8 3.585938-8 8-8zm0 0"/></svg>