<?xml version="1.0"?>
<svg xmlns="http://www.w3.org/2000/svg" viewBox="0 0 64 64" width="512" height="512"><title>Design-Studio-Desk-idea-Creative</title><g id="Expand"><rect x="2" y="60" width="2" height="2"/><rect x="48" y="52" width="4" height="2"/><rect x="48" y="44" width="4" height="2"/><path d="M55,58h1a1,1,0,0,0,1-1V41a1,1,0,0,0-1-1H55V38h2a1,1,0,0,0,1-1V33a1,1,0,0,0-1-1H56V31a3,3,0,0,0-6,0v1H48V31a3,3,0,0,0-3-3H43.78l-.5-2H48a3,3,0,0,0,3-3V9a3,3,0,0,0-3-3H28a3,3,0,0,0-3,3V23a3,3,0,0,0,3,3h4.72l-.5,2H31a3,3,0,0,0-3,3v1H26.315a7.016,7.016,0,0,0-4.707-3.806l.384-3.07A1,1,0,0,0,21,24h-.72l.69-2.758-1.94-.484L18.22,24H15.78l-.81-3.242-1.94.484L13.72,24H13a1,1,0,0,0-.992,1.124L12.867,32H7a1,1,0,0,0-1,1v4a1,1,0,0,0,1,1H9V60H6v2H62V60H55Zm-2,2H47V58h6Zm2-18v6H45V42ZM45,56V50H55v6Zm8-16H47V38h6Zm-1-9a1,1,0,0,1,2,0v1H52ZM28,8H48a1,1,0,0,1,1,1V20H27V9A1,1,0,0,1,28,8ZM27,23V22H49v1a1,1,0,0,1-1,1H28A1,1,0,0,1,27,23Zm7.78,3h6.44l.5,2H34.28ZM30,31a1,1,0,0,1,1-1H45a1,1,0,0,1,1,1v1H30Zm-1,3H56v2H27V35a7.026,7.026,0,0,0-.08-1ZM28,46a1,1,0,0,1-1-1V44h5a1,1,0,0,1,0,2ZM25,35V45a3,3,0,0,0,.171,1H16a1,1,0,0,1-1-1V35a5,5,0,0,1,10,0ZM22,56.142A4,4,0,0,1,25,60H22ZM19,50V48h4v2ZM14.689,30.453,14.133,26h5.734l-.252,2.02A6.979,6.979,0,0,0,14.689,30.453ZM8,34h5.08A7.026,7.026,0,0,0,13,35v1H8Zm3,4h2v7a3,3,0,0,0,3,3h1v3a1,1,0,0,0,1,1h2v2.09A6.006,6.006,0,0,0,15,60H11Zm9,18.142V60H17A4,4,0,0,1,20,56.142Zm2-2.052V52h2a1,1,0,0,0,1-1V48h7a3,3,0,0,0,0-6H27V38H45v2H44a1,1,0,0,0-1,1V57a1,1,0,0,0,1,1h1v2H27A6.006,6.006,0,0,0,22,54.09Z"/><rect x="33.586" y="11" width="2.828" height="2" transform="translate(1.766 28.263) rotate(-45)"/><rect x="38.586" y="16" width="2.828" height="2" transform="translate(-0.305 33.263) rotate(-45)"/><rect x="33.964" y="13.5" width="7.071" height="2" transform="translate(0.73 30.763) rotate(-45)"/><rect x="5" y="41" width="2" height="14"/><rect x="59" y="46" width="2" height="10"/><path d="M55,12V9a7.009,7.009,0,0,0-7-7H39V4h9a5.006,5.006,0,0,1,5,5v3Z"/><rect x="35" y="2" width="2" height="2"/></g></svg>
