<?xml version="1.0" encoding="iso-8859-1"?>
<!-- Generator: Adobe Illustrator 19.0.0, SVG Export Plug-In . SVG Version: 6.00 Build 0)  -->
<svg version="1.1" id="Capa_1" xmlns="http://www.w3.org/2000/svg" xmlns:xlink="http://www.w3.org/1999/xlink" x="0px" y="0px"
	 viewBox="0 0 496 496" style="enable-background:new 0 0 496 496;" xml:space="preserve">
<g>
	<g>
		<path d="M448,208v-16.808c18.232-3.72,32-19.872,32-39.192V40c0-22.056-17.944-40-40-40H56C33.944,0,16,17.944,16,40v112
			c0,19.312,13.768,35.472,32,39.192V208H0v48h16v240h464V256h16v-48H448z M32,152V40c0-13.232,10.768-24,24-24h384
			c13.232,0,24,10.768,24,24v112c0,13.232-10.768,24-24,24H56C42.768,176,32,165.232,32,152z M432,192v16h-16v-16H432z M400,192v16
			H96v-16H400z M80,192v16H64v-16H80z M240,480h-64V352h64V480z M160,336v-16h176v16H160z M320,480h-64V352h64V480z M480,240h-32v16
			h16v224H336V352h16v-48H144v48h16v128H32V256h400v-16H16v-16h464V240z"/>
	</g>
</g>
<g>
	<g>
		<path d="M48,272v192h80V272H48z M112,448H64v-40h48V448z M112,392H64v-40h48V392z M112,336H64v-48h48V336z"/>
	</g>
</g>
<g>
	<g>
		<path d="M368,272v192h80V272H368z M432,448h-48v-40h48V448z M432,392h-48v-40h48V392z M432,336h-48v-48h48V336z"/>
	</g>
</g>
<g>
	<g>
		<rect x="144" y="272" width="208" height="16"/>
	</g>
</g>
<g>
	<g>
		<polygon points="48,32 48,72 64,72 64,48 88,48 88,32 		"/>
	</g>
</g>
<g>
	<g>
		<polygon points="408,32 408,48 432,48 432,72 448,72 448,32 		"/>
	</g>
</g>
<g>
	<g>
		<polygon points="432,120 432,144 408,144 408,160 448,160 448,120 		"/>
	</g>
</g>
<g>
	<g>
		<polygon points="64,144 64,120 48,120 48,160 88,160 88,144 		"/>
	</g>
</g>
<g>
	<g>
		<rect x="176" y="72" width="144" height="16"/>
	</g>
</g>
<g>
	<g>
		<rect x="176" y="104" width="16" height="16"/>
	</g>
</g>
<g>
	<g>
		<rect x="208" y="104" width="16" height="16"/>
	</g>
</g>
<g>
	<g>
		<rect x="240" y="104" width="16" height="16"/>
	</g>
</g>
<g>
	<g>
		<rect x="272" y="104" width="16" height="16"/>
	</g>
</g>
<g>
	<g>
		<rect x="304" y="104" width="16" height="16"/>
	</g>
</g>
<g>
</g>
<g>
</g>
<g>
</g>
<g>
</g>
<g>
</g>
<g>
</g>
<g>
</g>
<g>
</g>
<g>
</g>
<g>
</g>
<g>
</g>
<g>
</g>
<g>
</g>
<g>
</g>
<g>
</g>
</svg>
