<?xml version="1.0" encoding="utf-8"?>
<!-- Generator: Adobe Illustrator 22.1.0, SVG Export Plug-In . SVG Version: 6.00 Build 0)  -->
<svg version="1.1" id="Warstwa_1" xmlns="http://www.w3.org/2000/svg" xmlns:xlink="http://www.w3.org/1999/xlink" x="0px" y="0px"
	 viewBox="0 0 496 496" style="enable-background:new 0 0 496 496;" xml:space="preserve">
<g>
	<path d="M119.6,195.2c-0.1,0.2-0.7,3.1-1,6.5l-0.8,6.1l6.9,1.1c11.1,1.6,10.4,2,11.2-4.8c0.4-3.4,0.5-6.2,0.3-6.5
		C135.7,197.2,119.9,194.9,119.6,195.2z"/>
	<path d="M154.1,200.2l-0.8,5.7c-0.4,3.1-0.3,6.1,0.1,6.5c1,1,5.7,1.7,12.5,2l3.9,0.2l0.7-5.7c0.4-3.2,0.3-6.1-0.1-6.4
		c-0.4-0.4-4.2-1.2-8.5-1.5L154.1,200.2z"/>
	<path d="M115.6,433.6c-12.7-7.7-28.2,7.7-20.5,20.5c2.8,4.6,8.3,7.8,13.1,7.8c2.1,0,5.4-1,7.4-2.2
		C125.8,453.6,125.8,439.8,115.6,433.6z"/>
	<polygon points="398,41.4 398,34.9 389.2,34.9 380.5,34.9 380.5,41.4 380.5,47.9 389.2,47.9 398,47.9 	"/>
	<polygon points="432.8,47.9 432.8,41.4 432.8,34.9 424.1,34.9 415.4,34.9 415.4,41.4 415.4,47.9 424.1,47.9 	"/>
	<path d="M31.9,418.4v-15.3v-15.3h150.3h150.3v-6.5v-6.5h-21.8H289v-22.2v-22.2l26-24.9l26.1-24.8v-26.9l0.1-26.8l-2.9-0.7
		c-2.3-0.4-79-11.4-113.6-16.2c-1.9-0.2-4,11.2-2.3,12.2c0.5,0.3,24.6,4,53.4,8.2l52.4,7.6l-0.1,18.5l-0.1,18.6l-24.7,23.6
		l-24.6,23.6h-16.3H246l29.7-29.1l29.7-29.1l-4.4-4.2c-2.5-2.5-5.7-4.4-7.4-4.6c-6.3-0.7-212.3-31.2-213.8-31.6
		c-1-0.3,4.1-4.4,12.2-9.7l13.7-9.3l0.3-13.8l0.3-13.8l17.4-2.9c9.6-1.5,72.9-11.9,140.8-22.8l123.2-20l6.4-24l6.5-24.1l29-0.3
		l29.1-0.2V47.9V13.1h4.4h4.4V6.5V0h-71.9h-71.9v6.5v6.5h4.4h4.4v34.9v34.8L344,83l11.4,0.3l-3.6,3.9c-3.2,3.4-4.6,4-11.7,5.1
		c-23.4,3.7-284,42.7-285.1,42.7s-1.4,10.2-1.4,48.9v48.9l3.1,0.7c1.6,0.3,53.2,8,114.6,17c61.4,9.2,111.8,16.6,111.9,16.8
		c0.1,0.1-12.5,12.5-28.1,27.7l-28.4,27.5h-5.9h-5.9v26.1v26.1H167h-47.9v-26.1v-26.1H82H45v26.1v26.1H31.9H18.8v21.8v21.8h6.5H31.9
		z M345.7,69.7V58.8V47.9h8.7h8.7v-6.5v-6.5h-8.7h-8.7V24V13.1h50.1h50.1v28.3v28.3h-50.1H345.7z M216.6,124.2l138.3-20.8l9.7-10.2
		l9.7-10.4h6.4c4.5,0,6.4,0.4,6.4,1.4c-0.1,0.7-2.2,8.9-4.8,18.2c-4.5,16.1-4.8,16.9-7.8,17.8c-1.7,0.4-62.2,10.4-134.4,22
		c-72.2,11.7-132.5,21.5-134,21.8c-2.2,0.5-5.2-1.3-15.5-8.9c-7.1-5.2-12.6-9.6-12.5-9.8C78.2,145.1,140.5,135.6,216.6,124.2z
		 M66.8,184.1v-30.6l13.1,9.9l13.1,9.9v12.3V198l-12.5,8.3c-6.9,4.7-12.7,8.4-13.1,8.4C67,214.6,66.8,200.9,66.8,184.1z M228,355.2
		v-19.6h24h24v19.6v19.6h-24h-24V355.2z M58,355.2v-19.6h24h24v19.6v19.6H82H58V355.2z"/>
	<path d="M189.1,205.3c-0.4,0.4-2.4,12-2.1,12.3c0.2,0.2,12.2,2.1,15.6,2.4c0.8,0,1.6-1.7,2-3.9c0.3-2.3,0.9-5.2,1.1-6.4
		c0.4-2.2-0.2-2.5-7.8-3.6C193.2,205.4,189.3,204.9,189.1,205.3z"/>
	<path d="M398.8,433.6c-12.7-7.7-28.2,7.7-20.5,20.5c2.8,4.6,8.3,7.8,13.1,7.8c2.1,0,5.4-1,7.4-2.2
		C409.1,453.6,409.1,439.8,398.8,433.6z"/>
	<path d="M446.6,312c-2.7-18.5-4.5-22.6-11.1-26.3c-4-2.4-5.3-2.5-29.5-2.5h-25.4v26.1v26.1h34.9h35l-0.7-3.5
		C449.4,330.1,448,321.1,446.6,312z M414.4,322.5h-20.8v-13.1v-13.1H412c16.7,0,18.5,0.2,19.1,2c0.2,1,1.1,5.6,1.7,10
		c0.7,4.5,1.4,9.5,1.7,11.2l0.7,2.9H414.4z"/>
	<polygon points="459,475 459,481.6 459,488.1 469.9,488.1 480.8,488.1 480.8,481.6 480.8,475 469.9,475 	"/>
	<path d="M493.3,357.9l-3.4-6c-1.9-3.3-4.8-8.4-6.6-11.4c-2.9-4.8-3.9-8.7-7.8-31.1c-5.8-32.8-6.6-35.5-11.8-40.5
		c-7.7-7.5-6.8-7.4-60.8-7.4h-48.5v65.4v65.4h21.7c11.9,0,24.2,0.5,27.5,1.1c21,4,37.8,21.5,41.4,43.4l1.3,7.8h23.9h23.9l-0.3-43.3
		L493.3,357.9z M469,431.4h-12l-0.7-3.7c-2.6-13.8-19.1-33.6-34.4-41.3c-11.1-5.6-20.3-7.3-38.9-7.3h-15.6v-52.3v-52.3h41.8h41.9
		l2.7,2.5c2.5,2.2,3.3,5.1,8.4,33.4l5.6,31.1l6.1,9l6.2,9.2l0.3,35.8l0.3,35.8H469z"/>
	<path d="M423.9,475l2.7-4.6c10.2-17.6,7.3-37.8-7.6-52.2c-13.3-12.7-28.8-16-45.5-9.7c-9.2,3.5-21,15.4-24.5,24.5
		c-4.8,12.9-3.8,25.8,2.9,37.3l2.7,4.7H249.8H145l2.7-4.6c3.5-6,6.2-15.3,6.2-21.2v-4.7h89.3h89.3V438v-6.5h-91.3H150l-2.4-4.2
		c-3.7-6.5-14.5-15.9-21.7-18.7c-8.8-3.5-22.3-3.5-31.2,0c-7.2,2.8-18.6,12.7-22,19.1l-2.2,3.9H36H1.4v6.5v6.5h32.7h32.7v4.7
		c0,6,2.7,15.3,6.1,21.2l2.7,4.6H42.8H10.1v6.5v6.5h40.6c37,0,41.1,0.2,47.1,2.2c8.5,2.7,16.1,2.7,24.7,0
		c6.6-2.1,10.1-2.2,127.3-2.2s120.6,0.1,127.3,2.2c3.8,1.2,9.3,2.2,12.2,2.2s8.4-1,12.2-2.2c5.1-1.6,9.9-2.2,19.2-2.2h12.2v-6.5V475
		h-4.5H423.9z M130.4,472.4c-3.2,2.5-4.1,2.6-20.4,2.6H93l-3.7-3.5c-6.6-6.3-8.9-12.1-8.9-22.7c0-8.4,0.3-9.8,3.4-15.3
		c8.1-14.5,27.1-19.5,42.1-11.2c6.4,3.6,12.1,10.9,14.1,18.1C142.8,451.3,138.3,466.4,130.4,472.4z M409.3,472.4
		c-3.2,2.5-4.1,2.6-20.4,2.6h-17l-3.7-3.5c-6.6-6.3-8.9-12.1-8.9-22.7c0-8.4,0.3-9.8,3.4-15.3c8.1-14.5,27.1-19.5,42.1-11.2
		c6.4,3.6,12.1,10.9,14.1,18.1C421.7,451.3,417.2,466.4,409.3,472.4z"/>
</g>
</svg>
