<!DOCTYPE svg PUBLIC "-//W3C//DTD SVG 20010904//EN" "http://www.w3.org/TR/2001/REC-SVG-20010904/DTD/svg10.dtd">
<svg version="1.0" xmlns="http://www.w3.org/2000/svg" width="512px" height="512px" viewBox="0 0 5120 5120" preserveAspectRatio="xMidYMid meet">
<g id="layer101" fill="#000000" stroke="none">
 <path d="M0 2560 l0 -2560 2560 0 2560 0 0 2560 0 2560 -2560 0 -2560 0 0 -2560z"/>
 </g>
<g id="layer102" fill="#ffffff" stroke="none">
 <path d="M0 2560 l0 -2560 2560 0 2560 0 0 2560 0 2560 -2560 0 -2560 0 0 -2560z m4523 1728 c119 -56 225 -177 261 -297 32 -108 15 -239 -46 -353 -43 -80 -93 -129 -182 -178 l-76 -42 0 -1113 c0 -1110 0 -1112 -21 -1139 -25 -32 -67 -34 -156 -7 l-63 19 0 -124 c0 -119 -1 -126 -25 -149 -23 -24 -31 -25 -135 -25 -104 0 -112 1 -135 25 -33 32 -33 78 0 110 20 21 34 25 80 25 l56 0 -3 92 -3 91 -240 68 -240 68 -197 1 -198 0 0 -80 0 -80 55 0 c46 0 60 -4 80 -25 33 -32 33 -78 0 -110 -24 -25 -26 -25 -215 -25 -189 0 -191 0 -215 25 -33 32 -33 78 0 110 20 21 34 25 80 25 l55 0 0 80 0 80 -480 0 -480 0 0 -80 0 -80 55 0 c46 0 60 -4 80 -25 33 -32 33 -78 0 -110 -24 -25 -26 -25 -215 -25 -189 0 -191 0 -215 25 -16 15 -25 36 -25 55 0 51 38 80 105 80 l55 0 0 80 0 80 -197 0 -198 -1 -240 -68 -240 -68 -3 -91 -3 -92 56 0 c46 0 60 -4 80 -25 33 -32 33 -78 0 -110 -23 -24 -31 -25 -135 -25 -104 0 -112 1 -135 25 -24 23 -25 30 -25 149 l0 124 -63 -19 c-89 -27 -131 -25 -156 7 -21 27 -21 29 -21 1148 l0 1121 -67 35 c-89 47 -153 107 -191 178 -61 113 -77 237 -46 343 32 108 135 233 234 284 87 45 14 44 2005 42 l1890 -2 58 -27z"/>
 <path d="M662 4147 c-48 -15 -119 -82 -149 -141 -19 -38 -27 -71 -31 -128 -4 -69 -2 -83 23 -133 18 -38 42 -67 74 -90 25 -19 49 -35 54 -35 4 0 7 20 7 45 0 81 73 123 131 76 22 -17 25 -29 29 -117 l5 -98 114 -63 c63 -35 116 -63 118 -63 2 0 3 16 3 35 0 71 78 109 131 66 21 -17 25 -30 29 -107 l5 -88 114 -63 c63 -35 116 -63 118 -63 2 0 3 11 3 25 0 36 42 75 80 75 51 0 80 -38 80 -105 l0 -55 178 0 c170 0 180 1 198 21 10 12 38 30 62 41 l42 19 0 375 0 375 25 24 24 25 431 0 431 0 24 -25 25 -24 0 -375 0 -375 43 -19 c23 -11 51 -29 61 -41 18 -20 28 -21 198 -21 l178 0 0 55 c0 67 29 105 80 105 38 0 80 -39 80 -75 0 -14 2 -25 5 -25 3 0 57 27 120 61 l115 61 0 84 c0 77 2 87 25 109 53 54 135 15 135 -65 l0 -41 120 63 120 63 0 98 c0 91 2 100 25 122 15 16 36 25 55 25 19 0 40 -9 55 -25 21 -20 25 -34 25 -81 l0 -56 28 17 c45 29 83 68 105 110 18 33 22 57 22 135 0 84 -3 101 -27 146 -33 63 -103 126 -156 142 -53 16 -3740 15 -3790 -1z m602 -100 c17 -17 50 -53 74 -80 l42 -47 246 0 245 0 24 -25 c33 -32 33 -78 0 -110 -24 -25 -27 -25 -195 -25 -93 0 -170 -3 -170 -6 0 -3 30 -39 67 -80 l66 -74 104 0 c97 0 106 -2 128 -25 48 -48 22 -122 -47 -134 l-37 -6 55 -63 c39 -46 54 -72 54 -93 0 -54 -61 -93 -113 -73 -9 3 -61 57 -117 120 l-101 114 -130 0 c-125 0 -131 1 -154 25 -30 29 -32 74 -6 106 15 19 32 25 81 29 l61 5 -67 78 -67 77 -149 0 c-145 0 -150 1 -173 25 -33 32 -33 78 0 110 21 22 33 25 100 25 l76 0 -20 26 c-28 36 -27 79 4 109 35 36 79 33 119 -8z m2631 8 c28 -27 33 -71 10 -101 -8 -10 -15 -22 -15 -26 0 -5 50 -8 110 -8 104 0 112 -1 135 -25 33 -32 33 -78 0 -110 -24 -25 -27 -25 -202 -25 l-178 0 -62 -80 -63 -80 41 0 c50 0 89 -34 89 -80 0 -19 -9 -40 -25 -55 -22 -23 -31 -25 -127 -25 l-103 -1 -85 -110 c-46 -61 -92 -115 -102 -120 -30 -16 -68 -10 -93 16 -38 38 -33 72 25 149 50 65 50 66 25 66 -14 0 -37 11 -50 25 -33 32 -33 78 0 110 22 23 32 25 113 25 l89 0 62 80 62 80 -151 0 c-147 0 -152 1 -175 25 -33 32 -33 78 0 110 24 25 24 25 238 25 l213 0 54 70 c29 39 60 75 69 80 29 17 71 11 96 -15z"/>
 <path d="M2240 3520 l0 -320 320 0 320 0 0 320 0 320 -320 0 -320 0 0 -320z"/>
 <path d="M800 2330 c0 -550 3 -1000 8 -1000 4 0 148 39 320 87 l312 87 -2 744 -3 743 -308 169 c-170 94 -312 170 -318 170 -5 0 -9 -381 -9 -1000z"/>
 <path d="M3988 3153 l-308 -165 0 -743 0 -743 23 -4 c12 -3 152 -42 310 -87 158 -44 292 -81 298 -81 5 0 9 375 9 995 0 790 -3 995 -12 994 -7 0 -151 -75 -320 -166z"/>
 <path d="M2084 3018 c-5 -18 5 -32 54 -80 l60 -58 362 0 361 0 60 57 c41 39 59 63 57 77 -3 21 -7 21 -475 24 l-472 2 -7 -22z"/>
 <path d="M1600 2240 l0 -720 960 0 960 0 0 720 0 720 -164 0 -164 0 -7 -27 c-10 -40 -132 -162 -190 -189 -50 -24 -51 -24 -435 -24 -384 0 -385 0 -435 24 -58 27 -180 149 -190 189 l-7 27 -164 0 -164 0 0 -720z"/>
 </g>

</svg>